<svg width="38" height="38" viewBox="0 0 38 38" fill="none" xmlns="http://www.w3.org/2000/svg">
<path fill-rule="evenodd" clip-rule="evenodd" d="M7.37505 2.37456C8.46901 1.2806 9.9528 0.666016 11.4998 0.666016C15.3433 0.666016 17.6543 3.43544 18.8977 5.69616C18.9324 5.75918 18.9664 5.82215 18.9998 5.88504C19.0333 5.82215 19.0673 5.75918 19.102 5.69616C20.3454 3.43545 22.6563 0.666016 26.4998 0.666016C28.0469 0.666016 29.5307 1.2806 30.6246 2.37456C31.7186 3.46851 32.3332 4.95224 32.3332 6.49935C32.3332 7.37243 32.1375 8.22532 31.7703 8.99937H35.6665C36.587 8.99937 37.3332 9.74556 37.3332 10.666V18.9993C37.3332 19.9198 36.587 20.666 35.6665 20.666H33.9999V35.666C33.9999 36.5865 33.2537 37.3327 32.3332 37.3327H5.66651C4.74604 37.3327 3.99984 36.5865 3.99984 35.666V20.666H2.33317C1.4127 20.666 0.666504 19.9198 0.666504 18.9993V10.666C0.666504 9.74556 1.4127 8.99937 2.33317 8.99937H6.22938C5.86223 8.22532 5.6665 7.37243 5.6665 6.49935C5.6665 4.95225 6.28109 3.46852 7.37505 2.37456ZM9.73208 8.26713C10.2009 8.73597 10.8369 8.99937 11.4998 8.99937H16.7565C16.5531 8.46705 16.2955 7.88172 15.977 7.30255C14.9287 5.39659 13.4897 3.99935 11.4998 3.99935C10.8368 3.99935 10.2009 4.26274 9.73207 4.73158C9.26323 5.20042 8.99983 5.83631 8.99983 6.49935C8.99983 7.16238 9.26323 7.79827 9.73208 8.26713C9.73208 8.26713 9.73207 8.26713 9.73208 8.26713ZM17.3332 12.3327V17.3327H3.99983V12.3327H17.3332ZM20.6665 17.3327V12.3327H33.9999V17.3327H20.6665ZM17.3332 20.666H7.33317V33.9994H17.3332V20.666ZM20.6665 33.9994V20.666H30.6666V33.9994H20.6665ZM26.4998 8.99937C27.1629 8.99937 27.7988 8.73597 28.2676 8.26713C28.7365 7.79826 28.9999 7.16238 28.9999 6.49935C28.9999 5.83632 28.7365 5.20043 28.2676 4.73158C27.7988 4.26274 27.1629 3.99935 26.4998 3.99935C24.51 3.99935 23.071 5.39659 22.0227 7.30255C21.7041 7.88172 21.4466 8.46705 21.2431 8.99937H26.4998Z" fill="#B2D452"/>
</svg>
