<svg width="28" height="28" viewBox="0 0 28 28" fill="none" xmlns="http://www.w3.org/2000/svg">
<path fill-rule="evenodd" clip-rule="evenodd" d="M7.75 2.75C4.98858 2.75 2.75 4.98858 2.75 7.75V20.25C2.75 23.0114 4.98858 25.25 7.75 25.25H20.25C23.0114 25.25 25.25 23.0114 25.25 20.25V7.75C25.25 4.98858 23.0114 2.75 20.25 2.75H7.75ZM0.25 7.75C0.25 3.60786 3.60786 0.25 7.75 0.25H20.25C24.3921 0.25 27.75 3.60786 27.75 7.75V20.25C27.75 24.3921 24.3921 27.75 20.25 27.75H7.75C3.60786 27.75 0.25 24.3921 0.25 20.25V7.75Z" fill="white"/>
<path fill-rule="evenodd" clip-rule="evenodd" d="M14.6043 10.2366C13.824 10.1209 13.0272 10.2542 12.3271 10.6175C11.6269 10.9807 11.0592 11.5555 10.7046 12.2601C10.35 12.9646 10.2265 13.7631 10.3518 14.5418C10.4771 15.3206 10.8448 16.04 11.4026 16.5977C11.9603 17.1554 12.6797 17.5231 13.4584 17.6484C14.2372 17.7737 15.0356 17.6503 15.7402 17.2957C16.4447 16.9411 17.0195 16.3733 17.3828 15.6732C17.7461 14.9731 17.8793 14.1762 17.7636 13.396C17.6456 12.6001 17.2748 11.8633 16.7059 11.2944C16.1369 10.7255 15.4001 10.3546 14.6043 10.2366ZM11.1756 8.39841C12.3425 7.79294 13.6706 7.57082 14.971 7.76365C16.2974 7.96035 17.5254 8.57844 18.4736 9.52663C19.4218 10.4748 20.0399 11.7028 20.2366 13.0293C20.4294 14.3297 20.2073 15.6577 19.6019 16.8246C18.9964 17.9915 18.0384 18.9377 16.8641 19.5288C15.6899 20.1198 14.3592 20.3255 13.0613 20.1167C11.7634 19.9078 10.5644 19.295 9.63479 18.3655C8.70522 17.4359 8.09243 16.2369 7.88358 14.939C7.67473 13.6411 7.88046 12.3104 8.47149 11.1361C9.06252 9.96186 10.0088 9.00387 11.1756 8.39841Z" fill="white"/>
<path fill-rule="evenodd" clip-rule="evenodd" d="M19.625 7.125C19.625 6.43464 20.1846 5.875 20.875 5.875H20.8875C21.5779 5.875 22.1375 6.43464 22.1375 7.125C22.1375 7.81536 21.5779 8.375 20.8875 8.375H20.875C20.1846 8.375 19.625 7.81536 19.625 7.125Z" fill="white"/>
</svg>
