<svg width="28" height="34" viewBox="0 0 28 34" fill="none" xmlns="http://www.w3.org/2000/svg">
<path fill-rule="evenodd" clip-rule="evenodd" d="M5 6.5C4.60218 6.5 4.22065 6.65803 3.93934 6.93934C3.65803 7.22065 3.5 7.60218 3.5 8V29C3.5 29.3978 3.65804 29.7793 3.93933 30.0606C4.22067 30.342 4.60221 30.5 5 30.5H23C23.3977 30.5 23.7793 30.342 24.0606 30.0606C24.342 29.7793 24.5 29.3977 24.5 29V8C24.5 7.60221 24.342 7.22067 24.0606 6.93933C23.7793 6.65804 23.3978 6.5 23 6.5H20C19.1716 6.5 18.5 5.82843 18.5 5C18.5 4.17157 19.1716 3.5 20 3.5H23C24.1934 3.5 25.3381 3.9741 26.182 4.81803C27.0258 5.66191 27.5 6.80649 27.5 8V29C27.5 30.1935 27.0258 31.3381 26.182 32.182C25.3381 33.0258 24.1935 33.5 23 33.5H5C3.80649 33.5 2.66191 33.0258 1.81803 32.182C0.974099 31.3381 0.5 30.1934 0.5 29V8C0.5 6.80652 0.974106 5.66193 1.81802 4.81802C2.66193 3.97411 3.80652 3.5 5 3.5H8C8.82843 3.5 9.5 4.17157 9.5 5C9.5 5.82843 8.82843 6.5 8 6.5H5Z" fill="#306E3E"/>
<path fill-rule="evenodd" clip-rule="evenodd" d="M6.5 3.5C6.5 1.84314 7.84314 0.5 9.5 0.5H18.5C20.1568 0.5 21.5 1.84312 21.5 3.5V6.5C21.5 8.15688 20.1568 9.5 18.5 9.5H9.5C7.84314 9.5 6.5 8.15686 6.5 6.5V3.5ZM18.5 3.5H9.5V6.5H18.5V3.5Z" fill="#306E3E"/>
</svg>
