<svg width="93" height="93" viewBox="0 0 93 93" fill="none" xmlns="http://www.w3.org/2000/svg">
<path d="M0 45C0 20.1472 20.1472 0 45 0H48C72.8528 0 93 20.1472 93 45V48C93 72.8528 72.8528 93 48 93H45C20.1472 93 0 72.8528 0 48V45Z" fill="#F6F7F3"/>
<path fill-rule="evenodd" clip-rule="evenodd" d="M48 3H45C21.804 3 3 21.804 3 45V48C3 71.196 21.804 90 45 90H48C71.196 90 90 71.196 90 48V45C90 21.804 71.196 3 48 3ZM45 0C20.1472 0 0 20.1472 0 45V48C0 72.8528 20.1472 93 45 93H48C72.8528 93 93 72.8528 93 48V45C93 20.1472 72.8528 0 48 0H45Z" fill="#8B9D83"/>
<path d="M42.5 41.3334C48.9203 41.3334 54.125 39.5985 54.125 37.4584C54.125 35.3183 48.9203 33.5834 42.5 33.5834C36.0797 33.5834 30.875 35.3183 30.875 37.4584C30.875 39.5985 36.0797 41.3334 42.5 41.3334Z" stroke="#E1D91E" stroke-width="2" stroke-linecap="round" stroke-linejoin="round"/>
<path d="M54.125 46.5C54.125 48.6442 48.9583 50.375 42.5 50.375C36.0417 50.375 30.875 48.6442 30.875 46.5" stroke="#E1D91E" stroke-width="2" stroke-linecap="round" stroke-linejoin="round"/>
<path d="M30.875 37.4584V55.5417C30.875 57.6859 36.0417 59.4167 42.5 59.4167C48.9583 59.4167 54.125 57.6859 54.125 55.5417V37.4584" stroke="#E1D91E" stroke-width="2" stroke-linecap="round" stroke-linejoin="round"/>
<path d="M66 52C66 57.0195 62.1467 61 57.5 61C52.8533 61 49 57.0195 49 52C49 46.9805 52.8533 43 57.5 43C62.1467 43 66 46.9805 66 52Z" fill="#F6F7F3" stroke="#E1D91E" stroke-width="2"/>
</svg>
