<svg width="93" height="93" viewBox="0 0 93 93" fill="none" xmlns="http://www.w3.org/2000/svg">
<path d="M0 45C0 20.1472 20.1472 0 45 0H48C72.8528 0 93 20.1472 93 45V48C93 72.8528 72.8528 93 48 93H45C20.1472 93 0 72.8528 0 48V45Z" fill="#F6F7F3"/>
<path fill-rule="evenodd" clip-rule="evenodd" d="M48 3H45C21.804 3 3 21.804 3 45V48C3 71.196 21.804 90 45 90H48C71.196 90 90 71.196 90 48V45C90 21.804 71.196 3 48 3ZM45 0C20.1472 0 0 20.1472 0 45V48C0 72.8528 20.1472 93 45 93H48C72.8528 93 93 72.8528 93 48V45C93 20.1472 72.8528 0 48 0H45Z" fill="#8B9D83"/>
<path d="M33.6666 63.6666H46.9999V46.9999H33.6666V63.6666Z" fill="#FDFDFD"/>
<path d="M60.3333 63.6666V46.9999H46.9999V63.6666H60.3333Z" fill="#FDFDFD"/>
<path d="M39.4999 38.6666L30.3333 38.6666V46.9999H33.6666H46.9999V38.6666L39.4999 38.6666Z" fill="#FDFDFD"/>
<path d="M54.4999 38.6666L46.9999 38.6666V46.9999H60.3333H63.6666V38.6666L54.4999 38.6666Z" fill="#FDFDFD"/>
<path d="M60.3333 46.9999V63.6666M60.3333 46.9999H46.9999M60.3333 46.9999H63.6666M60.3333 63.6666H33.6666M60.3333 63.6666H46.9999M33.6666 63.6666V46.9999M33.6666 63.6666H46.9999M33.6666 46.9999H30.3333M33.6666 46.9999H46.9999M30.3333 38.6666H63.6666M30.3333 38.6666V46.9999M30.3333 38.6666L39.4999 38.6666M63.6666 38.6666V46.9999M63.6666 38.6666L54.4999 38.6666M63.6666 46.9999H46.9999M30.3333 46.9999H46.9999M46.9999 63.6666V46.9999M46.9999 38.6666L39.4999 38.6666M46.9999 38.6666C46.9999 38.6666 45.3333 30.3333 39.4999 30.3333C38.3949 30.3333 37.335 30.7722 36.5536 31.5536C35.7722 32.335 35.3333 33.3948 35.3333 34.4999C35.3333 35.605 35.7722 36.6648 36.5536 37.4462C37.335 38.2276 38.3949 38.6666 39.4999 38.6666M46.9999 38.6666L54.4999 38.6666M46.9999 38.6666C46.9999 38.6666 48.6666 30.3333 54.4999 30.3333C55.605 30.3333 56.6648 30.7722 57.4462 31.5536C58.2276 32.335 58.6666 33.3948 58.6666 34.4999C58.6666 35.605 58.2276 36.6648 57.4462 37.4462C56.6648 38.2276 55.605 38.6666 54.4999 38.6666M46.9999 38.6666V46.9999" stroke="#B2D452" stroke-width="3.33333" stroke-linecap="round" stroke-linejoin="round"/>
</svg>
