<svg width="93" height="93" viewBox="0 0 93 93" fill="none" xmlns="http://www.w3.org/2000/svg">
<path d="M0 45C0 20.1472 20.1472 0 45 0H48C72.8528 0 93 20.1472 93 45V48C93 72.8528 72.8528 93 48 93H45C20.1472 93 0 72.8528 0 48V45Z" fill="#F6F7F3"/>
<path fill-rule="evenodd" clip-rule="evenodd" d="M48 3H45C21.804 3 3 21.804 3 45V48C3 71.196 21.804 90 45 90H48C71.196 90 90 71.196 90 48V45C90 21.804 71.196 3 48 3ZM45 0C20.1472 0 0 20.1472 0 45V48C0 72.8528 20.1472 93 45 93H48C72.8528 93 93 72.8528 93 48V45C93 20.1472 72.8528 0 48 0H45Z" fill="#8B9D83"/>
<path d="M53 33H56C56.7956 33 57.5587 33.3161 58.1213 33.8787C58.6839 34.4413 59 35.2044 59 36V57C59 57.7956 58.6839 58.5587 58.1213 59.1213C57.5587 59.6839 56.7956 60 56 60H38C37.2044 60 36.4413 59.6839 35.8787 59.1213C35.3161 58.5587 35 57.7956 35 57V36C35 35.2044 35.3161 34.4413 35.8787 33.8787C36.4413 33.3161 37.2044 33 38 33H41" stroke="#306E3E" stroke-width="3" stroke-linecap="round" stroke-linejoin="round"/>
<path d="M51.5 30H42.5C41.6716 30 41 30.6716 41 31.5V34.5C41 35.3284 41.6716 36 42.5 36H51.5C52.3284 36 53 35.3284 53 34.5V31.5C53 30.6716 52.3284 30 51.5 30Z" stroke="#306E3E" stroke-width="3" stroke-linecap="round" stroke-linejoin="round"/>
</svg>
