<svg width="69" height="111" viewBox="0 0 69 111" fill="none" xmlns="http://www.w3.org/2000/svg">
<path fill-rule="evenodd" clip-rule="evenodd" d="M66 8.25V102.75C66 105.649 63.6495 108 60.75 108H8.25C5.3505 108 3 105.649 3 102.75V8.25C3 5.3505 5.3505 3 8.25 3H60.75C63.6495 3 66 5.3505 66 8.25V8.25Z" fill="#EDE8E2" stroke="#8B9D83" stroke-width="5.25" stroke-linecap="round" stroke-linejoin="round"/>
<rect x="45" y="3" width="5.25" height="21" transform="rotate(90 45 3)" stroke="#8B9D83" stroke-width="5.25" stroke-linecap="round" stroke-linejoin="round"/>
<path fill-rule="evenodd" clip-rule="evenodd" d="M33.2626 49.3662L37.2201 45.4088C38.313 44.3158 38.584 42.6461 37.8927 41.2635L37.6685 40.8151C36.9772 39.4325 37.2482 37.7628 38.3412 36.6698L43.2481 31.763C43.5987 31.4123 44.1671 31.4123 44.5177 31.763C44.5859 31.8312 44.6427 31.91 44.6859 31.9963L46.6681 35.9607C48.1845 38.9936 47.5901 42.6566 45.1924 45.0543L34.4213 55.8254C31.8114 58.4353 27.9509 59.3466 24.4494 58.1794L20.1141 56.7343C19.6437 56.5775 19.3895 56.0691 19.5463 55.5987C19.5904 55.4665 19.6646 55.3464 19.7632 55.2478L24.5237 50.4873C25.6166 49.3944 27.2864 49.1234 28.6689 49.8147L29.1174 50.0389C30.4999 50.7302 32.1697 50.4592 33.2626 49.3662Z" fill="#306838"/>
<circle cx="24.5" cy="80.5" r="3" fill="#8B9D83"/>
<circle cx="34.5" cy="80.5" r="3" fill="#8B9D83"/>
<circle cx="44.5" cy="80.5" r="3" fill="#306838"/>
</svg>
