<svg width="108" height="110" viewBox="0 0 108 110" fill="none" xmlns="http://www.w3.org/2000/svg">
<path fill-rule="evenodd" clip-rule="evenodd" d="M56.8626 99.6667C83.5564 99.6667 105.196 78.0271 105.196 51.3333C105.196 24.6396 83.5564 3 56.8626 3C30.1689 3 8.5293 24.6396 8.5293 51.3333C8.5293 78.0271 30.1689 99.6667 56.8626 99.6667Z" fill="#EDE8E2" stroke="#8B9D83" stroke-width="4.83333"/>
<path fill-rule="evenodd" clip-rule="evenodd" d="M56.8626 94.834C56.8626 94.834 76.196 79.0158 76.196 51.334C76.196 23.6522 56.8626 7.83398 56.8626 7.83398C56.8626 7.83398 37.5293 23.6522 37.5293 51.334C37.5293 79.0158 56.8626 94.834 56.8626 94.834Z" stroke="#8B9D83" stroke-width="4.83333"/>
<path d="M10.946 36.8333H102.779" stroke="#8B9D83" stroke-width="4.83333" stroke-linecap="round"/>
<path d="M10.946 65.8333H102.779" stroke="#8B9D83" stroke-width="4.83333" stroke-linecap="round"/>
<path d="M0 73.7655C0 71.6513 1.71384 69.9375 3.82797 69.9375H50.7206C52.8347 69.9375 54.5485 71.6513 54.5485 73.7655V105.506C54.5485 107.62 52.8347 109.334 50.7206 109.334H3.82796C1.71383 109.334 0 107.62 0 105.506V73.7655Z" fill="#306838"/>
<path fill-rule="evenodd" clip-rule="evenodd" d="M45.8941 75.5123C46.9994 74.9172 48.3778 75.3307 48.9729 76.436C49.568 77.5412 49.1545 78.9196 48.0493 79.5147L28.3512 90.1214C27.6785 90.4836 26.8688 90.4836 26.1961 90.1214L6.49798 79.5147C5.39276 78.9196 4.97924 77.5412 5.57436 76.436C6.16948 75.3307 7.54788 74.9172 8.6531 75.5123L27.2736 85.5388L45.8941 75.5123Z" fill="white"/>
</svg>
